<svg xmlns="http://www.w3.org/2000/svg" viewBox="0 0 229.348 51.143">
  <path d="M229.328 22.229C228.617 6.323 225.254.697 225.112.465l-.147-.237h-.278L7.653 0 7.58.023a11.523 11.523 0 0 0-2.863 1.24 8.878 8.878 0 0 0-1.28 2.074A87.395 87.395 0 0 0 .009 25.302H0a87.377 87.377 0 0 0 3.357 22.01 8.878 8.878 0 0 0 1.273 2.08 11.523 11.523 0 0 0 2.86 1.249l.072.023 217.034.479h.278l.147-.237c.144-.231 3.525-5.846 4.287-21.75a30.933 30.933 0 0 0-.062-3.4 31.406 31.406 0 0 0 .082-3.527zM7.718 49.664a10.819 10.819 0 0 1-2.43-1.026 8.332 8.332 0 0 1-1.001-1.688 86.689 86.689 0 0 1-3.285-21.61h.006A86.66 86.66 0 0 1 4.365 3.704a8.334 8.334 0 0 1 1.006-1.686 10.82 10.82 0 0 1 2.433-1.017l40.07.041c-.34 2.608-2.24 17.388-2.328 22.745-.007.443-.003.957.009 1.515h-.006A44.223 44.223 0 0 0 45.533 27c.07 5.357 1.922 20.143 2.253 22.752zM228.31 29.108c-.664 13.829-3.38 19.82-4.01 21.034l-175.505-.387c-.27-2.13-2.193-17.44-2.262-22.768-.006-.437 0-.946.013-1.499h.012c-.015-.629-.02-1.197-.012-1.685.087-5.326 2.059-20.63 2.337-22.76l175.505.184c.625 1.217 3.323 7.216 3.942 21.046a28.694 28.694 0 0 1-.056 3.03h-.06c.012.152.02.298.03.449-.009.11-.014.216-.023.327h.044a28.722 28.722 0 0 1 .045 3.03z"/>
</svg>