<svg xmlns="http://www.w3.org/2000/svg" viewBox="0 0 70.57422 70.57471">
  <path d="M35.28711,0A35.28736,35.28736,0,1,0,70.57422,35.28711,35.32721,35.32721,0,0,0,35.28711,0Zm0,69.57471a34.28736,34.28736,0,1,1,34.28711-34.2876A34.326,34.326,0,0,1,35.28711,69.57471Z"/>
  <path d="M35.28711,2.23926a33.04388,33.04388,0,0,0-3.96,65.8501c.02832.03094.0495.068.07916.09765l.07776-.0777a32.10821,32.10821,0,0,0,7.97949-.04754l.03552.03247c.0116-.0127.01947-.028.03083-.0409A33.04352,33.04352,0,0,0,35.28711,2.23926ZM31.84851,67.148a2.2188,2.2188,0,0,1-.3446-1.19238A1.94957,1.94957,0,0,1,33.333,63.9082h4.14941a1.95034,1.95034,0,0,1,1.83008,2.04737,2.19886,2.19886,0,0,1-.32269,1.15875,31.43081,31.43081,0,0,1-7.1413.03363Zm8.29419-.1806a3.2477,3.2477,0,0,0,.1698-1.01178,2.94817,2.94817,0,0,0-2.83008-3.04737H33.333a2.948,2.948,0,0,0-2.8291,3.04737,3.23878,3.23878,0,0,0,.18512,1.04461,32.02911,32.02911,0,1,1,9.45367-.03283Z"/>
  <path d="M51.36523,38.22754H19.00391a1.5229,1.5229,0,0,0-1.52149,1.521V51.30176a1.52331,1.52331,0,0,0,1.52149,1.52148H51.36523a1.52331,1.52331,0,0,0,1.52149-1.52148V39.74854A1.5229,1.5229,0,0,0,51.36523,38.22754ZM25.72656,51.50391v-.5h1.9043v.5Zm18.31934-.03174v-.53223h1.42578v.53223Zm7.84082-.17041a.52232.52232,0,0,1-.52149.52148H46.47168v-1.8833H43.0459v1.8833h-14.415V50.00391h-3.9043v1.81933H19.00391a.52232.52232,0,0,1-.52149-.52148V39.74854a.52223.52223,0,0,1,.52149-.521H51.36523a.52223.52223,0,0,1,.52149.521Z"/>
  <path d="M21.333,20.291a5.82983,5.82983,0,1,0,5.83008,5.83007A5.8363,5.8363,0,0,0,21.333,20.291Zm0,10.65966a4.82983,4.82983,0,1,1,4.83008-4.82959A4.83458,4.83458,0,0,1,21.333,30.95068Z"/>
  <path d="M21.2373,24.82324a1.585,1.585,0,1,0,1.585,1.585A1.58666,1.58666,0,0,0,21.2373,24.82324Zm0,2.16992a.585.585,0,1,1,.585-.585A.58567.58567,0,0,1,21.2373,26.99316Z"/>
  <path d="M30.75586,26.669l2.51855,2.79638,16.334-.2832,2.56836-2.773.15527-4.01172h-21.501Zm1.05762-3.27149H51.293L51.19238,26.001l-2.02734,2.189-15.45313.26758L31.76172,26.293Z"/>
  <path d="M48.11035,17.73779H21.30176A7.97791,7.97791,0,0,0,13.333,25.70605v.19141a7.9779,7.9779,0,0,0,7.96875,7.96826H48.11035a7.97707,7.97707,0,0,0,7.96778-7.96826v-.19141A7.97708,7.97708,0,0,0,48.11035,17.73779Zm6.96778,8.15967a6.97608,6.97608,0,0,1-6.96778,6.96826H21.30176A6.97628,6.97628,0,0,1,14.333,25.89746v-.19141a6.97629,6.97629,0,0,1,6.96875-6.96826H48.11035a6.97609,6.97609,0,0,1,6.96778,6.96826Z"/>
  <path d="M49.00391,40.39746H21.55664a1.77849,1.77849,0,0,0-1.77637,1.77686v1.085a1.77848,1.77848,0,0,0,1.77637,1.77685H49.00391a1.77847,1.77847,0,0,0,1.77636-1.77685v-1.085A1.77848,1.77848,0,0,0,49.00391,40.39746Zm.77636,2.86182a.7778.7778,0,0,1-.77636.77685H21.55664a.77781.77781,0,0,1-.77637-.77685v-1.085a.77781.77781,0,0,1,.77637-.77686H49.00391a.7778.7778,0,0,1,.77636.77686Z"/>
  <rect x="37.40234" y="23.70605" width="8.23438" height="1"/>
</svg>