<svg xmlns="http://www.w3.org/2000/svg" viewBox="0 0 70.57422 70.57422">
  <path d="M35.28711,0A35.28711,35.28711,0,1,0,70.57422,35.28711,35.32721,35.32721,0,0,0,35.28711,0Zm0,69.57422A34.28711,34.28711,0,1,1,69.57422,35.28711,34.32591,34.32591,0,0,1,35.28711,69.57422Z"/>
  <path d="M35.28711,25.64355a9.64356,9.64356,0,1,0,9.64355,9.64356A9.65461,9.65461,0,0,0,35.28711,25.64355Zm0,18.28711a8.64356,8.64356,0,1,1,8.64355-8.64355A8.65361,8.65361,0,0,1,35.28711,43.93066Z"/>
  <path d="M35.28711,11.47266a23.814,23.814,0,1,0,23.814,23.81445A23.8001,23.8001,0,0,0,35.28711,11.47266Zm0,46.62793a22.814,22.814,0,1,1,22.814-22.81348A22.8398,22.8398,0,0,1,35.28711,58.10059Z"/>
  <path d="M35.28711,2.23926A33.04785,33.04785,0,1,0,68.335,35.28711,33.08526,33.08526,0,0,0,35.28711,2.23926Zm0,65.0957A32.04785,32.04785,0,1,1,67.335,35.28711,32.08427,32.08427,0,0,1,35.28711,67.335Z"/>
  <path d="M35.291,32.708a2.94678,2.94678,0,1,0,2.94677,2.94726A2.95035,2.95035,0,0,0,35.291,32.708Zm0,4.89355a1.94678,1.94678,0,1,1,1.94677-1.94629A1.94883,1.94883,0,0,1,35.291,37.60156Z"/>
  <path d="M6.79346,35.28711a28.66405,28.66405,0,0,1,.69824-6.29688l-.97559-.2207A29.52551,29.52551,0,0,0,31.46729,64.53516l.12792-.99219A28.5424,28.5424,0,0,1,6.79346,35.28711Z"/>
  <path d="M44.05713,7.11914l-.29688.95508a28.53724,28.53724,0,0,1,19.08789,34.4707l.9668.25391A29.53555,29.53555,0,0,0,44.05713,7.11914Z"/>
</svg>