<svg xmlns="http://www.w3.org/2000/svg" viewBox="0 0 58 58">
<g fill="#fff" stroke="none" stroke-width="2">
  <path d="M29 58a28.818 28.818 0 0 1-11.288-2.279 28.907 28.907 0 0 1-9.218-6.215 28.9 28.9 0 0 1-6.215-9.218A28.817 28.817 0 0 1 0 29a28.819 28.819 0 0 1 2.279-11.288 28.9 28.9 0 0 1 6.215-9.218 28.9 28.9 0 0 1 9.218-6.215A28.815 28.815 0 0 1 29 0a28.815 28.815 0 0 1 11.288 2.279 28.9 28.9 0 0 1 9.218 6.215 28.9 28.9 0 0 1 6.215 9.218A28.819 28.819 0 0 1 58 29a28.817 28.817 0 0 1-2.279 11.288 28.9 28.9 0 0 1-6.215 9.218 28.907 28.907 0 0 1-9.218 6.215A28.818 28.818 0 0 1 29 58zm-1-28v9h2v-9h9v-2h-9v-9h-2v9h-9v2z"/>
</g>
</svg>